<svg version="1.1" xmlns="http://www.w3.org/2000/svg" xmlns:xlink="http://www.w3.org/1999/xlink" width="1366" height="768"><defs><clipPath id="swzEqhVCehXe"><path fill="none" stroke="none" d="M 78.5 30.5 L 1361.5 30.5 L 1361.5 744.5 L 78.5 744.5 L 78.5 30.5"/></clipPath><clipPath id="UzGTHGmseuxU"><path fill="none" stroke="none" d="M 78.5 30.5 L 1361.5 30.5 L 1361.5 744.5 L 78.5 744.5 L 78.5 30.5"/></clipPath><clipPath id="ysZDsevrHTFw"><path fill="none" stroke="none" d="M 78.5 30.5 L 1361.5 30.5 L 1361.5 744.5 L 78.5 744.5 L 78.5 30.5"/></clipPath><clipPath id="soiVVauUkfnW"><path fill="none" stroke="none" d="M 78.5 30.5 L 1361.5 30.5 L 1361.5 744.5 L 78.5 744.5 L 78.5 30.5"/></clipPath><clipPath id="EZZxzFlGoiDM"><path fill="none" stroke="none" d="M 78.5 30.5 L 1361.5 30.5 L 1361.5 744.5 L 78.5 744.5 L 78.5 30.5"/></clipPath><clipPath id="JcZZFXxZaduL"><path fill="none" stroke="none" d="M 78.5 30.5 L 1361.5 30.5 L 1361.5 744.5 L 78.5 744.5 L 78.5 30.5"/></clipPath></defs><path fill="rgb(255,255,255)" stroke="none" paint-order="stroke" d="M 0.5 0.5 L 1366.5 0.5 L 1366.5 768.5 L 0.5 768.5 L 0.5 0.5" fill-opacity="1"/><rect fill="#FFFFFF" stroke="none" x="78" y="30" width="1283" height="714" transform="matrix(1, 0, 0, 1, 0.5, 0.5)"/><path fill="rgb(255,255,255)" stroke="none" paint-order="stroke" d="M 78.5 30.5 L 1361.5 30.5 L 1361.5 744.5 L 78.5 744.5 L 78.5 30.5" fill-opacity="1"/><path fill="none" stroke="rgb(229,229,229)" paint-order="fill" d="M 78.5 30.5 L 1361.5 30.5 L 1361.5 744.5 L 78.5 744.5 L 78.5 30.5" stroke-opacity="1" stroke-linejoin="bevel" stroke-miterlimit="10" stroke-dasharray=""/><path fill="none" stroke="rgb(229,229,229)" paint-order="fill" d="M 158.5 744.5 L 158.5 30.5 M 319.5 744.5 L 319.5 30.5 M 479.5 744.5 L 479.5 30.5 M 639.5 744.5 L 639.5 30.5 M 800.5 744.5 L 800.5 30.5 M 960.5 744.5 L 960.5 30.5 M 1120.5 744.5 L 1120.5 30.5 M 1281.5 744.5 L 1281.5 30.5" stroke-opacity="1" stroke-linejoin="bevel" stroke-miterlimit="10" stroke-dasharray="" clip-path="url(#swzEqhVCehXe)"/><path fill="none" stroke="rgb(229,229,229)" paint-order="fill" d="M 78.5 664.5 L 1361.5 664.5 M 78.5 522.5 L 1361.5 522.5 M 78.5 379.5 L 1361.5 379.5 M 78.5 236.5 L 1361.5 236.5 M 78.5 94.5 L 1361.5 94.5" stroke-opacity="1" stroke-linejoin="bevel" stroke-miterlimit="10" stroke-dasharray="" clip-path="url(#UzGTHGmseuxU)"/><path fill="none" stroke="none"/><path fill="none" stroke="rgb(218,165,32)" paint-order="fill" d="M 158.6875 712.0454711914062 L 319.0625 610.3211669921875 L 479.4375 607.0014038085938 L 639.8125 338.7725524902344 L 800.1875 270.4976806640625 L 960.5625 176.51930236816406 L 1120.9375 75.11526489257812 L 1281.3125 62.95454406738281" stroke-opacity="1" stroke-linejoin="bevel" stroke-miterlimit="10" stroke-width="5" stroke-dasharray="" clip-path="url(#ysZDsevrHTFw)"/><path fill="none" stroke="rgb(0,0,0)" paint-order="fill" d="M 78.5 744.5 L 1361.5 744.5" stroke-opacity="1" stroke-linejoin="bevel" stroke-miterlimit="10" stroke-dasharray=""/><path fill="none" stroke="rgb(0,0,0)" paint-order="fill" d="M 158.5 750.5 L 158.5 742.5 M 319.5 750.5 L 319.5 742.5 M 479.5 750.5 L 479.5 742.5 M 639.5 750.5 L 639.5 742.5 M 800.5 750.5 L 800.5 742.5 M 960.5 750.5 L 960.5 742.5 M 1120.5 750.5 L 1120.5 742.5 M 1281.5 750.5 L 1281.5 742.5" stroke-opacity="1" stroke-linejoin="bevel" stroke-miterlimit="10" stroke-dasharray=""/><path fill="none" stroke="rgb(0,0,0)" paint-order="fill" d="" stroke-opacity="1" stroke-linejoin="bevel" stroke-miterlimit="10" stroke-dasharray=""/><text fill="rgb(68,68,68)" stroke="none" font-family="helvetica" font-size="11px" font-style="normal" font-weight="normal" text-decoration="normal" x="0" y="0" text-anchor="middle" dominant-baseline="hanging" transform="matrix(1, 0, 0, 1, 158.5, 755.5)" fill-opacity="1">2013</text><text fill="rgb(68,68,68)" stroke="none" font-family="helvetica" font-size="11px" font-style="normal" font-weight="normal" text-decoration="normal" x="0" y="0" text-anchor="middle" dominant-baseline="hanging" transform="matrix(1, 0, 0, 1, 319.5, 755.5)" fill-opacity="1">2014</text><text fill="rgb(68,68,68)" stroke="none" font-family="helvetica" font-size="11px" font-style="normal" font-weight="normal" text-decoration="normal" x="0" y="0" text-anchor="middle" dominant-baseline="hanging" transform="matrix(1, 0, 0, 1, 479.5, 755.5)" fill-opacity="1">2015</text><text fill="rgb(68,68,68)" stroke="none" font-family="helvetica" font-size="11px" font-style="normal" font-weight="normal" text-decoration="normal" x="0" y="0" text-anchor="middle" dominant-baseline="hanging" transform="matrix(1, 0, 0, 1, 639.5, 755.5)" fill-opacity="1">2016</text><text fill="rgb(68,68,68)" stroke="none" font-family="helvetica" font-size="11px" font-style="normal" font-weight="normal" text-decoration="normal" x="0" y="0" text-anchor="middle" dominant-baseline="hanging" transform="matrix(1, 0, 0, 1, 800.5, 755.5)" fill-opacity="1">2017</text><text fill="rgb(68,68,68)" stroke="none" font-family="helvetica" font-size="11px" font-style="normal" font-weight="normal" text-decoration="normal" x="0" y="0" text-anchor="middle" dominant-baseline="hanging" transform="matrix(1, 0, 0, 1, 960.5, 755.5)" fill-opacity="1">2018</text><text fill="rgb(68,68,68)" stroke="none" font-family="helvetica" font-size="11px" font-style="normal" font-weight="normal" text-decoration="normal" x="0" y="0" text-anchor="middle" dominant-baseline="hanging" transform="matrix(1, 0, 0, 1, 1120.5, 755.5)" fill-opacity="1">2019</text><text fill="rgb(68,68,68)" stroke="none" font-family="helvetica" font-size="11px" font-style="normal" font-weight="normal" text-decoration="normal" x="0" y="0" text-anchor="middle" dominant-baseline="hanging" transform="matrix(1, 0, 0, 1, 1281.5, 755.5)" fill-opacity="1">2020</text><path fill="none" stroke="rgb(0,0,0)" paint-order="fill" d="M 78.5 744.5 L 78.5 30.5" stroke-opacity="1" stroke-linejoin="bevel" stroke-miterlimit="10" stroke-dasharray=""/><path fill="none" stroke="rgb(0,0,0)" paint-order="fill" d="M 72.5 664.5 L 80.5 664.5 M 72.5 522.5 L 80.5 522.5 M 72.5 379.5 L 80.5 379.5 M 72.5 236.5 L 80.5 236.5 M 72.5 94.5 L 80.5 94.5" stroke-opacity="1" stroke-linejoin="bevel" stroke-miterlimit="10" stroke-dasharray=""/><path fill="none" stroke="rgb(0,0,0)" paint-order="fill" d="M 74.5 693.5 L 78.5 693.5 M 74.5 721.5 L 78.5 721.5 M 74.5 664.5 L 78.5 664.5 M 74.5 636.5 L 78.5 636.5 M 74.5 607.5 L 78.5 607.5 M 74.5 579.5 L 78.5 579.5 M 74.5 550.5 L 78.5 550.5 M 74.5 522.5 L 78.5 522.5 M 74.5 493.5 L 78.5 493.5 M 74.5 465.5 L 78.5 465.5 M 74.5 436.5 L 78.5 436.5 M 74.5 408.5 L 78.5 408.5 M 74.5 379.5 L 78.5 379.5 M 74.5 350.5 L 78.5 350.5 M 74.5 322.5 L 78.5 322.5 M 74.5 293.5 L 78.5 293.5 M 74.5 265.5 L 78.5 265.5 M 74.5 236.5 L 78.5 236.5 M 74.5 208.5 L 78.5 208.5 M 74.5 179.5 L 78.5 179.5 M 74.5 151.5 L 78.5 151.5 M 74.5 122.5 L 78.5 122.5 M 74.5 94.5 L 78.5 94.5 M 74.5 65.5 L 78.5 65.5 M 74.5 37.5 L 78.5 37.5" stroke-opacity="1" stroke-linejoin="bevel" stroke-miterlimit="10" stroke-dasharray=""/><text fill="rgb(68,68,68)" stroke="none" font-family="helvetica" font-size="11px" font-style="normal" font-weight="normal" text-decoration="normal" x="0" y="0" text-anchor="end" dominant-baseline="central" transform="matrix(1, 0, 0, 1, 67.5, 664.5)" fill-opacity="1">$500,000.00</text><text fill="rgb(68,68,68)" stroke="none" font-family="helvetica" font-size="11px" font-style="normal" font-weight="normal" text-decoration="normal" x="0" y="0" text-anchor="end" dominant-baseline="central" transform="matrix(1, 0, 0, 1, 67.5, 522.5)" fill-opacity="1">$600,000.00</text><text fill="rgb(68,68,68)" stroke="none" font-family="helvetica" font-size="11px" font-style="normal" font-weight="normal" text-decoration="normal" x="0" y="0" text-anchor="end" dominant-baseline="central" transform="matrix(1, 0, 0, 1, 67.5, 379.5)" fill-opacity="1">$700,000.00</text><text fill="rgb(68,68,68)" stroke="none" font-family="helvetica" font-size="11px" font-style="normal" font-weight="normal" text-decoration="normal" x="0" y="0" text-anchor="end" dominant-baseline="central" transform="matrix(1, 0, 0, 1, 67.5, 236.5)" fill-opacity="1">$800,000.00</text><text fill="rgb(68,68,68)" stroke="none" font-family="helvetica" font-size="11px" font-style="normal" font-weight="normal" text-decoration="normal" x="0" y="0" text-anchor="end" dominant-baseline="central" transform="matrix(1, 0, 0, 1, 67.5, 94.5)" fill-opacity="1">$900,000.00</text><path fill="rgb(255,255,255)" stroke="rgb(229,229,229)" paint-order="fill" d="M 88.5 40.5 L 301.5500030517578 40.5 L 301.5500030517578 80.5 L 88.5 80.5 L 88.5 40.5" fill-opacity="0.95" clip-path="url(#soiVVauUkfnW)" stroke-opacity="0.5" stroke-linejoin="bevel" stroke-miterlimit="10" stroke-dasharray=""/><text fill="rgb(68,68,68)" stroke="none" font-family="helvetica" font-size="13px" font-style="normal" font-weight="normal" text-decoration="normal" x="123" y="60" text-anchor="start" dominant-baseline="central" transform="matrix(1, 0, 0, 1, 0.5, 0.5)" fill-opacity="1">Mitch Daniels' Compensation</text><path fill="none" stroke="rgb(218,165,32)" paint-order="fill" d="M 98.5 60.5 L 118.5 60.5" stroke-opacity="1" stroke-linejoin="bevel" stroke-miterlimit="10" stroke-width="5" stroke-dasharray="" clip-path="url(#soiVVauUkfnW)"/><path fill="none" stroke="none"/><path fill="none" stroke="none"/><text fill="rgb(68,68,68)" stroke="none" font-family="helvetica" font-size="13px" font-style="normal" font-weight="bold" text-decoration="normal" x="0" y="0" text-anchor="start" dominant-baseline="text-after-edge" transform="matrix(1, 0, 0, 1, 78.5, 23.5)" fill-opacity="1">Mitch Daniels' salary from 2013 to 2020</text></svg>